<svg width="45.000000" height="45.000000" viewBox="0 0 45 45" fill="none" xmlns="http://www.w3.org/2000/svg" xmlns:xlink="http://www.w3.org/1999/xlink">
	<desc>
			Created with Pixso.
	</desc>
	<defs>
		<clipPath id="clip25_3126">
			<rect id="Icon" width="45.000000" height="45.000000" fill="white" fill-opacity="0"/>
		</clipPath>
	</defs>
	<g clip-path="url(#clip25_3126)">
		<path id="Vector" d="M35.15 18.28C35.64 18.28 36.12 18.36 36.56 18.52C38.2 19.09 39.37 20.66 39.37 22.5L39.37 33.75C39.37 36.08 37.48 37.96 35.15 37.96L9.84 37.96C7.51 37.96 5.62 36.08 5.62 33.75L5.62 22.5C5.62 20.66 6.79 19.09 8.43 18.52C8.87 18.36 9.35 18.28 9.84 18.28L35.15 18.28ZM8.43 18.52L8.43 16.87C8.43 15.03 9.61 13.47 11.25 12.89C11.68 12.74 12.16 12.65 12.65 12.65L32.34 12.65C32.83 12.65 33.31 12.74 33.75 12.89C35.38 13.47 36.56 15.03 36.56 16.87L36.56 18.52M11.25 12.89L11.25 11.25C11.25 8.91 13.13 7.03 15.46 7.03L29.53 7.03C31.86 7.03 33.75 8.91 33.75 11.25L33.75 12.89" stroke="#FDFDFC" stroke-opacity="1.000000" stroke-width="2.000000" stroke-linejoin="round"/>
	</g>
</svg>
