<svg width="43.750000" height="40.937500" viewBox="0 0 43.75 40.9375" fill="none" xmlns="http://www.w3.org/2000/svg" xmlns:xlink="http://www.w3.org/1999/xlink">
	<desc>
			Created with Pixso.
	</desc>
	<defs>
		<filter id="filter_25_3141_dd" x="0.000000" y="0.000000" width="43.750000" height="40.937500" filterUnits="userSpaceOnUse" color-interpolation-filters="sRGB">
			<feFlood flood-opacity="0" result="BackgroundImageFix"/>
			<feColorMatrix in="SourceAlpha" type="matrix" values="0 0 0 0 0 0 0 0 0 0 0 0 0 0 0 0 0 0 127 0" result="hardAlpha"/>
			<feOffset dx="0" dy="4"/>
			<feGaussianBlur stdDeviation="1.33333"/>
			<feComposite in2="hardAlpha" operator="out" k2="-1" k3="1"/>
			<feColorMatrix type="matrix" values="0 0 0 0 0 0 0 0 0 0 0 0 0 0 0 0 0 0 0.25 0"/>
			<feBlend mode="normal" in2="BackgroundImageFix" result="effect_dropShadow_1"/>
			<feBlend mode="normal" in="SourceGraphic" in2="effect_dropShadow_1" result="shape"/>
		</filter>
	</defs>
	<g filter="url(#filter_25_3141_dd)">
		<path id="Vector" d="M34.53 1C36.86 1 38.75 2.88 38.75 5.21L38.75 9.43L38.75 27.71C38.75 30.04 36.86 31.93 34.53 31.93L9.21 31.93C6.88 31.93 5 30.04 5 27.71L5 9.43L5 5.21C5 2.88 6.88 1 9.21 1L34.53 1ZM5 9.43L38.75 9.43M9.23 5.21L9.23 5.23L9.21 5.23L9.21 5.21L9.23 5.21ZM13.45 5.21L13.45 5.23L13.43 5.23L13.43 5.21L13.45 5.21ZM17.67 5.21L17.67 5.23L17.65 5.23L17.65 5.21L17.67 5.21Z" stroke="#FDFDFC" stroke-opacity="1.000000" stroke-width="2.000000" stroke-linejoin="round"/>
	</g>
</svg>
