<svg width="19.306641" height="18.556641" viewBox="0 0 19.3066 18.5566" fill="none" xmlns="http://www.w3.org/2000/svg" xmlns:xlink="http://www.w3.org/1999/xlink">
	<desc>
			Created with Pixso.
	</desc>
	<defs/>
	<path id="Shape" d="M7.92 0.98L6.2 3.93C5.91 4.41 5.45 4.75 4.9 4.87L1.57 5.6C0.08 5.93 -0.51 7.74 0.5 8.88L2.77 11.43C3.14 11.85 3.32 12.4 3.26 12.96L2.93 16.35C2.78 17.87 4.32 18.99 5.72 18.38L8.85 17.01C9.36 16.79 9.94 16.79 10.45 17.01L13.58 18.38C14.98 18.99 16.52 17.87 16.37 16.35L16.03 12.96C15.98 12.4 16.16 11.85 16.53 11.43L18.8 8.88C19.81 7.74 19.22 5.93 17.73 5.6L14.4 4.87C13.85 4.75 13.38 4.41 13.1 3.93L11.37 0.98C10.6 -0.34 8.7 -0.34 7.92 0.98Z" fill="#5700FF" fill-opacity="1.000000" fill-rule="evenodd"/>
</svg>
