<svg width="38.562500" height="35.750000" viewBox="0 0 38.5625 35.75" fill="none" xmlns="http://www.w3.org/2000/svg" xmlns:xlink="http://www.w3.org/1999/xlink">
	<desc>
			Created with Pixso.
	</desc>
	<defs/>
	<path id="Vector" d="M12.95 13.65C9.45 13.65 6.62 10.82 6.62 7.32C6.62 3.83 9.45 1 12.95 1C16.44 1 19.28 3.83 19.28 7.32C19.28 10.82 16.44 13.65 12.95 13.65ZM29.82 16.46C27.1 16.46 24.9 14.26 24.9 11.54C24.9 8.82 27.1 6.62 29.82 6.62C32.54 6.62 34.75 8.82 34.75 11.54C34.75 14.26 32.54 16.46 29.82 16.46ZM1 31.23C1 24.63 6.35 19.28 12.95 19.28C17.46 19.28 21.39 21.78 23.43 25.47C24.37 27.18 24.9 29.14 24.9 31.23L24.9 31.23C24.9 31.3 24.9 31.37 24.9 31.43C21.41 33.54 17.32 34.75 12.95 34.75C8.58 34.75 4.49 33.54 1 31.43C1 31.37 1 31.3 1 31.23ZM23.43 25.47C24.82 23.43 27.16 22.09 29.82 22.09C34.09 22.09 37.56 25.55 37.56 29.82C37.56 29.93 37.56 30.04 37.55 30.15C35.22 31.29 32.6 31.93 29.82 31.93C28.11 31.93 26.46 31.69 24.9 31.23" stroke="#FDFDFC" stroke-opacity="1.000000" stroke-width="2.000000" stroke-linejoin="round"/>
</svg>
