<svg width="21.000000" height="21.000000" viewBox="0 0 21 21" fill="none" xmlns="http://www.w3.org/2000/svg" xmlns:xlink="http://www.w3.org/1999/xlink">
	<desc>
			Created with Pixso.
	</desc>
	<defs/>
	<path id="vector" d="M21 1.54L21 19.45C21 19.86 20.83 20.25 20.54 20.54C20.25 20.83 19.86 21 19.45 21L1.54 21C1.13 21 0.74 20.83 0.45 20.54C0.16 20.25 0 19.86 0 19.45L0 1.54C0 1.13 0.16 0.74 0.45 0.45C0.74 0.16 1.13 0 1.54 0L19.45 0C19.86 0 20.25 0.16 20.54 0.45C20.83 0.74 21 1.13 21 1.54ZM6.17 8.02L3.08 8.02L3.08 17.91L6.17 17.91L6.17 8.02ZM6.45 4.63C6.45 4.39 6.41 4.16 6.32 3.95C6.23 3.73 6.1 3.53 5.94 3.37C5.77 3.2 5.58 3.07 5.36 2.98C5.15 2.89 4.92 2.84 4.68 2.84L4.63 2.84C4.15 2.84 3.7 3.02 3.36 3.36C3.02 3.7 2.84 4.15 2.84 4.63C2.84 5.1 3.02 5.56 3.36 5.89C3.7 6.23 4.15 6.42 4.63 6.42C4.86 6.42 5.09 6.38 5.31 6.3C5.53 6.22 5.73 6.09 5.9 5.93C6.07 5.77 6.2 5.58 6.3 5.36C6.39 5.15 6.44 4.92 6.45 4.68L6.45 4.63ZM17.91 11.9C17.91 8.93 16.02 7.78 14.14 7.78C13.52 7.75 12.91 7.88 12.36 8.16C11.82 8.44 11.35 8.85 11.01 9.37L10.93 9.37L10.93 8.02L8.02 8.02L8.02 17.91L11.11 17.91L11.11 12.65C11.07 12.11 11.24 11.58 11.58 11.16C11.93 10.75 12.43 10.49 12.97 10.44L13.08 10.44C14.06 10.44 14.79 11.06 14.79 12.61L14.79 17.91L17.88 17.91L17.91 11.9Z" fill="#5700FF" fill-opacity="1.000000" fill-rule="nonzero"/>
</svg>
