<svg width="23.333496" height="23.333984" viewBox="0 0 23.3335 23.334" fill="none" xmlns="http://www.w3.org/2000/svg" xmlns:xlink="http://www.w3.org/1999/xlink">
	<desc>
			Created with Pixso.
	</desc>
	<defs/>
	<path id="Vector" d="M23.33 11.73C23.33 5.25 18.11 0 11.66 0C5.22 0 0 5.25 0 11.73C0 17.59 4.26 22.45 9.84 23.33L9.84 15.13L6.88 15.13L6.88 11.73L9.84 11.73L9.84 9.15C9.84 6.2 11.58 4.58 14.25 4.58C15.52 4.58 16.86 4.81 16.86 4.81L16.86 7.7L15.38 7.7C13.94 7.7 13.48 8.6 13.48 9.53L13.48 11.73L16.72 11.73L16.2 15.13L13.48 15.13L13.48 23.33C19.06 22.45 23.33 17.59 23.33 11.73Z" fill="#5700FF" fill-opacity="1.000000" fill-rule="nonzero"/>
</svg>
