<svg width="23.333496" height="18.958984" viewBox="0 0 23.3335 18.959" fill="none" xmlns="http://www.w3.org/2000/svg" xmlns:xlink="http://www.w3.org/1999/xlink">
	<desc>
			Created with Pixso.
	</desc>
	<defs/>
	<path id="vector" d="M20.94 4.72C20.95 4.92 20.95 5.13 20.95 5.33C20.95 11.66 16.14 18.95 7.33 18.95L7.33 18.95C4.73 18.95 2.18 18.21 0 16.81C0.37 16.85 0.75 16.87 1.13 16.87C3.29 16.88 5.38 16.15 7.08 14.82C5.03 14.78 3.24 13.45 2.61 11.5C3.33 11.64 4.06 11.61 4.77 11.41C2.54 10.96 0.93 9 0.93 6.72C0.93 6.7 0.93 6.68 0.93 6.66C1.59 7.03 2.34 7.24 3.1 7.26C1 5.85 0.35 3.06 1.62 0.87C4.05 3.86 7.64 5.68 11.49 5.87C11.1 4.21 11.63 2.46 12.87 1.3C14.8 -0.52 17.83 -0.42 19.64 1.5C20.72 1.29 21.74 0.9 22.68 0.34C22.33 1.45 21.58 2.39 20.58 2.99C21.53 2.88 22.46 2.62 23.33 2.24C22.69 3.2 21.88 4.04 20.94 4.72Z" fill="#5700FF" fill-opacity="1.000000" fill-rule="nonzero"/>
</svg>
