<svg width="122.273438" height="57.451172" viewBox="0 0 122.273 57.4512" fill="none" xmlns="http://www.w3.org/2000/svg" xmlns:xlink="http://www.w3.org/1999/xlink">
	<desc>
			Created with Pixso.
	</desc>
	<defs/>
	<path id="-30%" d="M82.49 46.37Q82.83 46.77 83.64 47.06Q87.73 40.63 91.61 34.7Q95.51 28.78 99.38 23.16Q103.26 17.52 107.2 12.08Q111.14 6.64 115.33 1.19Q114.92 0.34 114.28 0.09Q114.02 0 113.72 0Q113.59 0 113.46 0.02Q113.34 0.04 113.24 0.09Q113 0.16 112.71 0.39Q112.42 0.61 112.06 1.03Q111.72 1.42 111.23 2.07Q105.07 10.47 100.16 17.43Q95.24 24.37 91.63 29.68Q88.03 34.99 85.76 38.59Q83.48 42.16 82.59 43.82Q82.14 44.66 82.14 45.32Q82.14 45.97 82.46 46.34Q82.47 46.36 82.49 46.37ZM78.67 25Q80.43 25.61 82.45 25.61Q85.07 25.61 87 24.57Q87.98 24.03 88.78 23.3Q89.57 22.59 90.2 21.69Q91.47 19.89 92.08 17.48Q92.69 15.06 92.69 12.37Q92.69 9.61 91.99 7.62Q91.3 5.63 90.06 4.35Q89.53 3.79 88.9 3.36Q88.09 2.79 87.11 2.45Q85.39 1.84 83.35 1.84Q80.77 1.84 78.8 2.9Q77.84 3.41 77.04 4.1Q76.19 4.83 75.51 5.76Q74.19 7.57 73.53 9.97Q72.86 12.37 72.86 15.06Q72.86 17.83 73.6 19.83Q74.34 21.82 75.62 23.1Q76.16 23.63 76.78 24.05Q77.65 24.64 78.67 25ZM85.14 23.02Q84.09 23.63 82.68 23.63Q82.11 23.63 81.56 23.51Q80.97 23.38 80.41 23.12Q79.34 22.61 78.53 21.49Q77.72 20.36 77.23 18.55Q76.76 16.74 76.76 14.12Q76.76 11.85 77.12 9.95Q77.5 8.04 78.24 6.68Q79 5.31 80.14 4.55Q80.29 4.44 80.46 4.35Q81.49 3.79 82.83 3.79Q83.51 3.79 84.15 3.95Q84.65 4.07 85.12 4.3Q86.21 4.8 87.02 5.94Q87.85 7.06 88.32 8.87Q88.81 10.67 88.81 13.29Q88.81 15.57 88.43 17.47Q88.07 19.36 87.31 20.74Q86.55 22.11 85.39 22.87Q85.27 22.95 85.14 23.02ZM27.31 34.57Q25.5 35.53 23.55 36.22L23.73 37.5Q24.11 37.47 24.37 37.45Q24.64 37.43 24.98 37.43L25.54 37.43Q27.15 37.43 28.63 37.88Q28.86 37.95 29.08 38.03Q30.48 38.5 31.58 39.35Q31.82 39.54 32.04 39.74Q32.19 39.87 32.33 40Q33.41 41.05 34.09 42.52Q34.85 44.17 34.85 46.3Q34.85 48.32 34.12 49.93Q33.43 51.52 32.27 52.63Q32.26 52.65 32.24 52.66Q31.69 53.18 31.07 53.59Q30.36 54.06 29.55 54.38Q28.52 54.78 27.46 54.91Q26.98 54.97 26.48 54.97Q26.24 54.97 26 54.96Q25.12 54.91 24.26 54.66Q24.14 54.63 24.02 54.59Q23.05 54.29 22.16 53.71Q21.17 53.07 20.32 52.08Q19.49 51.11 18.89 49.73Q18.35 49.73 17.89 49.91Q17.82 49.94 17.75 49.97Q17.26 50.2 16.9 50.57Q16.87 50.59 16.85 50.62Q16.57 50.91 16.38 51.26Q16.31 51.38 16.25 51.5Q16.08 51.9 16.05 52.3Q16.04 52.4 16.04 52.5Q16.04 53.44 16.44 54.16Q16.45 54.17 16.45 54.18Q16.59 54.44 16.76 54.67Q17.08 55.11 17.52 55.46Q18.21 56.02 19.07 56.4Q19.96 56.78 20.88 57.01Q21.82 57.25 22.76 57.34Q23.7 57.45 24.48 57.45Q24.83 57.45 25.18 57.43Q26.67 57.37 28.14 57.03Q29.97 56.64 31.64 55.88Q31.65 55.88 31.67 55.87Q32.75 55.38 33.75 54.74Q34.28 54.39 34.79 54Q36.06 53.03 37.04 51.82Q37.18 51.65 37.3 51.48Q37.63 51.05 37.91 50.59Q38.55 49.55 38.96 48.38Q39.58 46.68 39.58 44.75Q39.58 42.74 38.77 41.14Q38.73 41.07 38.69 41.01Q38.21 40.07 37.53 39.3Q37 38.7 36.36 38.21Q34.92 37.07 33.02 36.47Q32.53 36.31 32.03 36.19Q30.59 35.86 29.08 35.86L28.47 35.86Q28.38 35.86 28.29 35.88L28.25 35.77Q29.37 35.26 30.55 34.61Q31.69 33.97 32.75 33.21Q32.8 33.18 32.84 33.15Q33.49 32.67 34.1 32.13Q34.52 31.77 34.92 31.38Q35.89 30.42 36.62 29.32Q36.99 28.73 37.29 28.11Q37.55 27.54 37.75 26.93Q37.76 26.92 37.76 26.9Q38.19 25.63 38.19 24.22Q38.19 22.6 37.52 21.37Q37.17 20.69 36.68 20.14Q36.26 19.67 35.75 19.29Q34.63 18.44 33.16 18.03Q33.14 18.02 33.12 18.01Q31.68 17.59 30.11 17.59Q28.96 17.59 27.65 17.83Q26.37 18.04 25.11 18.48Q24.42 18.72 23.75 19.02Q23.22 19.26 22.7 19.54Q21.55 20.16 20.66 20.95Q19.8 21.75 19.27 22.71Q19.09 23.05 18.97 23.41Q18.77 24.05 18.77 24.75Q18.77 25.51 19 26.1Q19.23 26.62 19.6 27Q19.64 27.04 19.69 27.08Q19.8 27.18 19.93 27.28Q20.28 27.53 20.7 27.67Q21.3 27.87 21.98 27.87Q22.99 27.87 24.08 27.35L24.15 27.11Q23.51 26.59 23.13 25.93Q22.99 25.69 22.89 25.43Q22.67 24.91 22.57 24.37Q22.49 23.9 22.49 23.41Q22.49 22.86 22.63 22.36Q22.68 22.2 22.74 22.04Q22.82 21.84 22.93 21.66Q23.18 21.22 23.59 20.88Q24.17 20.37 25.09 20.09Q26.03 19.78 27.37 19.78Q28.67 19.78 29.8 20.18Q30.79 20.52 31.56 21.13Q31.68 21.23 31.79 21.33Q31.97 21.49 32.14 21.66Q32.74 22.3 33.13 23.16Q33.63 24.24 33.63 25.6Q33.63 27.6 32.84 29.22Q32.81 29.28 32.79 29.34Q32.57 29.76 32.32 30.17Q31.59 31.33 30.55 32.3Q29.14 33.6 27.31 34.57ZM61.44 18.46Q59.31 17.63 56.8 17.63Q55.17 17.63 53.65 18.02Q53.48 18.07 53.31 18.12Q52.16 18.44 51.11 18.96Q50.63 19.2 50.17 19.49Q50.09 19.53 50.02 19.58Q48.64 20.46 47.49 21.69Q46.3 22.99 45.43 24.64Q44.58 26.28 44.11 28.25Q43.64 30.2 43.64 32.42Q43.64 35.57 44.55 37.97Q45.45 40.37 47.02 42Q47.67 42.66 48.42 43.18Q49.49 43.94 50.76 44.42Q52.91 45.25 55.39 45.25Q57.19 45.25 58.86 44.78Q59.96 44.47 60.98 43.96Q61.48 43.71 61.96 43.41Q62.2 43.26 62.43 43.11Q63.62 42.29 64.62 41.21Q65.81 39.9 66.64 38.26Q67.49 36.6 67.96 34.63Q68.43 32.64 68.43 30.38Q68.43 27.29 67.55 24.93Q66.68 22.54 65.12 20.92Q64.59 20.35 63.99 19.89Q62.84 19 61.44 18.46ZM59.39 42.27Q58.16 42.87 56.63 42.87Q55.3 42.87 54.15 42.41Q53.58 42.19 53.06 41.86Q53.02 41.83 52.98 41.81Q51.46 40.81 50.36 39.15Q49.24 37.45 48.65 35.24Q48.05 33.02 48.05 30.62Q48.05 28.12 48.61 26.17Q49.17 24.2 50.15 22.85Q51.14 21.48 52.48 20.77Q53.09 20.45 53.74 20.27Q54.53 20.05 55.39 20.05Q56.58 20.05 57.64 20.43Q57.73 20.46 57.83 20.5Q58.12 20.62 58.41 20.76Q59.21 21.16 59.92 21.77Q60.88 22.58 61.62 23.7Q62.38 24.82 62.9 26.19Q63.43 27.55 63.7 29.1Q63.99 30.64 63.99 32.28Q63.99 34.61 63.48 36.56Q62.99 38.5 62.04 39.9Q61.31 40.98 60.31 41.71Q60.03 41.91 59.72 42.09Q59.56 42.18 59.39 42.27ZM108.25 44.55Q110 45.16 112.03 45.16Q114.64 45.16 116.58 44.11Q117.55 43.58 118.36 42.85Q119.15 42.14 119.78 41.24Q121.04 39.43 121.65 37.03Q122.27 34.61 122.27 31.92Q122.27 29.15 121.56 27.17Q120.88 25.18 119.63 23.9Q119.1 23.34 118.48 22.91Q117.66 22.34 116.69 22Q114.97 21.39 112.93 21.39Q110.35 21.39 108.38 22.45Q107.42 22.96 106.61 23.65Q105.77 24.38 105.09 25.31Q103.77 27.11 103.1 29.52Q102.43 31.92 102.43 34.61Q102.43 37.37 103.17 39.38Q103.91 41.37 105.2 42.65Q105.74 43.18 106.35 43.6Q107.22 44.19 108.25 44.55ZM114.72 42.57Q113.66 43.17 112.26 43.17Q111.68 43.17 111.13 43.06Q110.54 42.93 109.98 42.67Q108.92 42.16 108.1 41.04Q107.29 39.9 106.8 38.1Q106.33 36.29 106.33 33.67Q106.33 31.39 106.7 29.5Q107.08 27.58 107.82 26.23Q108.57 24.85 109.71 24.1Q109.87 23.99 110.03 23.9Q111.06 23.34 112.4 23.34Q113.09 23.34 113.73 23.5Q114.23 23.62 114.7 23.84Q115.78 24.35 116.6 25.49Q117.43 26.61 117.9 28.41Q118.38 30.22 118.38 32.84Q118.38 35.12 118.01 37.01Q117.64 38.91 116.89 40.28Q116.13 41.66 114.97 42.42Q114.85 42.5 114.72 42.57ZM15.33 29.66Q15.28 29.26 15.12 28.85Q14.3 28.99 13.31 29.05Q12.33 29.08 11.3 29.08Q9.61 29.08 8.12 29.01Q6.66 28.94 5.41 28.94Q4.19 28.94 3.17 29.05Q2.18 29.15 1.48 29.5Q1.06 29.7 0.75 30.01Q0.54 30.22 0.37 30.49Q0 31.14 0 32.24Q1.15 31.92 2.31 31.81Q3.46 31.68 4.66 31.68Q5.58 31.68 6.46 31.74Q7.37 31.77 8.29 31.83Q9.21 31.88 10.08 31.92Q10.96 31.96 11.85 31.96Q12.8 31.96 13.47 31.9Q14.16 31.85 14.57 31.67Q15.01 31.49 15.21 31.18Q15.41 30.87 15.41 30.35Q15.41 30.04 15.33 29.66Z" fill="#FFA55C" fill-opacity="1.000000" fill-rule="evenodd"/>
</svg>
